<svg width="697" height="197" viewBox="0 0 697 197" fill="none" xmlns="http://www.w3.org/2000/svg">
<path fill-rule="evenodd" clip-rule="evenodd" d="M670.161 297.18C674.03 369.328 679.185 455.279 625.755 503.916C572.509 552.386 486.42 511.25 416.428 528.152C361.021 541.532 318.618 599.817 262.198 591.71C204.378 583.403 165.286 531.048 127.362 486.619C88.7037 441.331 55.4213 392.527 42.5485 334.392C27.835 267.943 15.4705 194.233 49.579 135.339C84.1578 75.6328 152.994 42.7131 220.29 27.4917C281.539 13.638 340.062 44.7132 401.899 55.6492C471.148 67.8961 551.585 48.2705 603.847 95.3247C657.8 143.902 666.274 224.684 670.161 297.18Z" fill="#B7D1E2"/>
<path d="M1 192C1 192 57.2594 81.7882 122.476 51.4071C199.486 15.5321 253.969 68.98 338.596 67.8595C410.691 66.9049 452.781 32.6935 522.518 51.4071C584.027 67.9129 597.856 150.357 660.581 139.652C678.418 136.607 704 123.199 704 123.199" stroke="black"/>
</svg>
