<svg width="398" height="671" viewBox="0 0 398 671" fill="none" xmlns="http://www.w3.org/2000/svg">
<path fill-rule="evenodd" clip-rule="evenodd" d="M119.972 73C178.54 81.1569 240.562 123.149 292.981 150.516C347.727 179.099 386.032 237.978 396.183 298.897C405.771 356.435 358.044 404.888 344.835 461.705C329.689 526.846 366.518 614.239 313.414 654.893C260.621 695.31 186.125 640.518 119.972 633.849C62.9453 628.101 1.35411 649.22 -47.0691 618.555C-96.5984 587.191 -117.936 527.586 -135.937 471.793C-153.903 416.107 -156.307 359.203 -149.495 301.088C-141.056 229.097 -155.682 131.503 -91.991 96.9005C-26.0269 61.0633 45.6194 62.6447 119.972 73Z" fill="#B7D1E2"/>
<path d="M40.5531 1C40.5531 1 274.925 125.333 302.5 214.5C326.399 291.783 389.159 346.05 380.968 425.935C375.019 483.961 379.325 522.226 344.924 571.578C306.037 627.367 265.707 665.44 192.739 669.876C127.778 673.825 98.4256 581.683 40.5531 608.553C19.6584 618.254 -3 645.978 -3 645.978" stroke="black"/>
</svg>
