<svg width="29" height="34" viewBox="0 0 29 34" fill="none" xmlns="http://www.w3.org/2000/svg">
<path fill-rule="evenodd" clip-rule="evenodd" d="M18.885 22.0198C19.0462 21.8324 19.2377 21.6837 19.4485 21.5822C19.6593 21.4808 19.8853 21.4286 20.1135 21.4286C20.3416 21.4286 20.5676 21.4808 20.7784 21.5822C20.9892 21.6837 21.1807 21.8324 21.342 22.0198L28.0271 29.7801C28.3529 30.158 28.536 30.6707 28.5362 31.2054C28.5363 31.7401 28.3535 32.253 28.0279 32.6312C27.7023 33.0094 27.2606 33.222 26.8 33.2222C26.3394 33.2224 25.8976 33.0102 25.5718 32.6322L18.8867 24.8719C18.7253 24.6847 18.5972 24.4624 18.5098 24.2177C18.4224 23.973 18.3774 23.7107 18.3774 23.4458C18.3774 23.181 18.4224 22.9187 18.5098 22.674C18.5972 22.4293 18.7253 22.207 18.8867 22.0198H18.885Z" fill="#4B4D52"/>
<path fill-rule="evenodd" clip-rule="evenodd" d="M12.0401 25.1602C13.2943 25.1602 14.5361 24.8734 15.6948 24.3163C16.8535 23.7592 17.9063 22.9426 18.7931 21.9131C19.6799 20.8837 20.3833 19.6615 20.8633 18.3165C21.3432 16.9715 21.5902 15.5299 21.5902 14.074C21.5902 12.6182 21.3432 11.1766 20.8633 9.83155C20.3833 8.48651 19.6799 7.26438 18.7931 6.23494C17.9063 5.2055 16.8535 4.3889 15.6948 3.83177C14.5361 3.27464 13.2943 2.98788 12.0401 2.98788C9.5073 2.98788 7.07819 4.15589 5.2872 6.23494C3.49621 8.314 2.49004 11.1338 2.49004 14.074C2.49004 17.0143 3.49621 19.8341 5.2872 21.9131C7.07819 23.9922 9.5073 25.1602 12.0401 25.1602ZM23.3266 14.074C23.3266 17.5488 22.1375 20.8813 20.0209 23.3384C17.9043 25.7955 15.0335 27.1758 12.0401 27.1758C9.04678 27.1758 6.17602 25.7955 4.05939 23.3384C1.94277 20.8813 0.753662 17.5488 0.753662 14.074C0.753662 10.5992 1.94277 7.26672 4.05939 4.80965C6.17602 2.35259 9.04678 0.972221 12.0401 0.972221C15.0335 0.972221 17.9043 2.35259 20.0209 4.80965C22.1375 7.26672 23.3266 10.5992 23.3266 14.074Z" fill="#4B4D52"/>
</svg>
