<svg width="602" height="492" viewBox="0 0 602 492" fill="none" xmlns="http://www.w3.org/2000/svg">
<path fill-rule="evenodd" clip-rule="evenodd" d="M350.55 -39.1891C426.776 -52.2966 497.385 -143.197 566.217 -107.923C631.876 -74.2749 617.953 26.7997 622.951 100.408C626.881 158.282 614.47 213.92 591.695 267.27C570.759 316.312 537.406 356.033 498.333 392.322C453.81 433.672 411.035 485.42 350.55 491.231C288.238 497.217 230.63 460.459 180.588 422.85C131.23 385.754 97.5434 335.282 69.7133 280.166C36.9081 215.198 -18.178 145.615 5.92587 76.9415C30.0444 8.22577 113.774 -18.7341 182.787 -41.9898C237.117 -60.2979 294.048 -29.4732 350.55 -39.1891Z" fill="#B7D1E2"/>
<path d="M41 85C41 85 5.39013 218.58 41 290.5C71.8909 352.889 113.009 376.816 175.5 407.5C266.024 451.948 333.894 445.664 433 427C479.304 418.28 501.18 385.209 548 390.5C569.969 392.983 602 407.5 602 407.5" stroke="black"/>
</svg>
