<svg width="30" height="30" viewBox="0 0 30 30" fill="none" xmlns="http://www.w3.org/2000/svg">
<path d="M9.08379 10.6003C8.82009 10.3366 8.67194 9.97892 8.67194 9.60598C8.67194 9.23303 8.82009 8.87536 9.08379 8.61164L14.0057 3.68977C14.2694 3.42612 14.6271 3.27802 15 3.27802C15.3729 3.27802 15.7306 3.42612 15.9943 3.68977L20.9162 8.61164C21.1764 8.87609 21.3215 9.23263 21.32 9.60361C21.3185 9.97458 21.1705 10.3299 20.9081 10.5922C20.6458 10.8546 20.2905 11.0026 19.9195 11.0041C19.5485 11.0056 19.192 10.8605 18.9275 10.6003L16.4062 8.07902V17.8125C16.4062 18.1855 16.2581 18.5431 15.9944 18.8069C15.7306 19.0706 15.373 19.2187 15 19.2187C14.627 19.2187 14.2694 19.0706 14.0056 18.8069C13.7419 18.5431 13.5938 18.1855 13.5938 17.8125V8.07902L11.0725 10.6003C10.8087 10.864 10.4511 11.0121 10.0781 11.0121C9.7052 11.0121 9.34754 10.864 9.08379 10.6003V10.6003ZM26.25 14.5313C25.877 14.5313 25.5194 14.6794 25.2556 14.9431C24.9919 15.2069 24.8438 15.5645 24.8438 15.9375V23.9062H5.15625V15.9375C5.15625 15.5645 5.00809 15.2069 4.74437 14.9431C4.48065 14.6794 4.12296 14.5313 3.75 14.5313C3.37704 14.5313 3.01935 14.6794 2.75563 14.9431C2.49191 15.2069 2.34375 15.5645 2.34375 15.9375V24.375C2.34443 24.9964 2.59158 25.5921 3.03097 26.0315C3.47036 26.4709 4.06611 26.7181 4.6875 26.7187H25.3125C25.9339 26.7181 26.5296 26.4709 26.969 26.0315C27.4084 25.5921 27.6556 24.9964 27.6562 24.375V15.9375C27.6562 15.5645 27.5081 15.2069 27.2444 14.9431C26.9806 14.6794 26.623 14.5313 26.25 14.5313V14.5313Z" fill="black"/>
</svg>
